999
FBX AutoCAD (*.DXF) exporter
  0
SECTION
  2
HEADER
  9
$ACADVER
  1
AC1008
  9
$UCSORG
 10
0.0
 20
0.0
 30
0.0
  9
$UCSXDIR
 10
1.0
 20
0.0
 30
0.0
  9
$TILEMODE
 70
   1
  9
$UCSYDIR
 10
0.0
 20
1.0
 30
0.0
  0
ENDSEC
  0
SECTION
  2
TABLES
  0
TABLE
  2
LTYPE
 70
   1
  0
LTYPE
  2
CONTINUOUS
 70
   64
  3
Solid line
 72
   65
 73
   0
 40
0.0
  0
ENDTAB
  0
TABLE
  2
LAYER
 70
   1
  0
LAYER
  2
plains
 70
   0
 62
   254
  6
CONTINUOUS
  0
ENDTAB
  0
ENDSEC
  0
SECTION
  2
BLOCKS
  0
ENDSEC
  0
SECTION
  2
ENTITIES
  0
POLYLINE
  8
plains
 62
   254
 66
   1
 10
0.0
 20
0.0
 30
0.0
 70
   64
 71
   121
 72
   200
  0
VERTEX
  8
plains
 10
-0.500000
 20
-0.500000
 30
0.000000
 70
   192
  0
VERTEX
  8
plains
 10
-0.400000
 20
-0.500000
 30
0.000000
 70
   192
  0
VERTEX
  8
plains
 10
-0.300000
 20
-0.500000
 30
0.000000
 70
   192
  0
VERTEX
  8
plains
 10
-0.200000
 20
-0.500000
 30
0.000000
 70
   192
  0
VERTEX
  8
plains
 10
-0.100000
 20
-0.500000
 30
0.000000
 70
   192
  0
VERTEX
  8
plains
 10
0.000000
 20
-0.500000
 30
0.000000
 70
   192
  0
VERTEX
  8
plains
 10
0.100000
 20
-0.500000
 30
0.000000
 70
   192
  0
VERTEX
  8
plains
 10
0.200000
 20
-0.500000
 30
0.000000
 70
   192
  0
VERTEX
  8
plains
 10
0.300000
 20
-0.500000
 30
0.000000
 70
   192
  0
VERTEX
  8
plains
 10
0.400000
 20
-0.500000
 30
0.000000
 70
   192
  0
VERTEX
  8
plains
 10
0.500000
 20
-0.500000
 30
0.000000
 70
   192
  0
VERTEX
  8
plains
 10
-0.500000
 20
-0.400000
 30
-0.000000
 70
   192
  0
VERTEX
  8
plains
 10
-0.400000
 20
-0.400000
 30
-0.008324
 70
   192
  0
VERTEX
  8
plains
 10
-0.300000
 20
-0.400000
 30
-0.016648
 70
   192
  0
VERTEX
  8
plains
 10
-0.200000
 20
-0.400000
 30
-0.016648
 70
   192
  0
VERTEX
  8
plains
 10
-0.100000
 20
-0.400000
 30
-0.008324
 70
   192
  0
VERTEX
  8
plains
 10
0.000000
 20
-0.400000
 30
-0.000000
 70
   192
  0
VERTEX
  8
plains
 10
0.097038
 20
-0.396227
 30
0.006895
 70
   192
  0
VERTEX
  8
plains
 10
0.194075
 20
-0.392453
 30
0.013790
 70
   192
  0
VERTEX
  8
plains
 10
0.294075
 20
-0.392453
 30
0.013790
 70
   192
  0
VERTEX
  8
plains
 10
0.397038
 20
-0.396227
 30
0.006895
 70
   192
  0
VERTEX
  8
plains
 10
0.500000
 20
-0.400000
 30
-0.000000
 70
   192
  0
VERTEX
  8
plains
 10
-0.500000
 20
-0.300000
 30
-0.000000
 70
   192
  0
VERTEX
  8
plains
 10
-0.400000
 20
-0.300000
 30
-0.016648
 70
   192
  0
VERTEX
  8
plains
 10
-0.300000
 20
-0.300000
 30
-0.033295
 70
   192
  0
VERTEX
  8
plains
 10
-0.200000
 20
-0.300000
 30
-0.033295
 70
   192
  0
VERTEX
  8
plains
 10
-0.100000
 20
-0.300000
 30
-0.016648
 70
   192
  0
VERTEX
  8
plains
 10
0.000000
 20
-0.300000
 30
-0.000000
 70
   192
  0
VERTEX
  8
plains
 10
0.094076
 20
-0.292454
 30
0.013790
 70
   192
  0
VERTEX
  8
plains
 10
0.188151
 20
-0.284907
 30
0.027580
 70
   192
  0
VERTEX
  8
plains
 10
0.288151
 20
-0.284907
 30
0.027580
 70
   192
  0
VERTEX
  8
plains
 10
0.394076
 20
-0.292454
 30
0.013790
 70
   192
  0
VERTEX
  8
plains
 10
0.500000
 20
-0.300000
 30
-0.000000
 70
   192
  0
VERTEX
  8
plains
 10
-0.500000
 20
-0.200000
 30
-0.000000
 70
   192
  0
VERTEX
  8
plains
 10
-0.400000
 20
-0.200000
 30
-0.016647
 70
   192
  0
VERTEX
  8
plains
 10
-0.300000
 20
-0.200000
 30
-0.033294
 70
   192
  0
VERTEX
  8
plains
 10
-0.199342
 20
-0.199646
 30
-0.030314
 70
   192
  0
VERTEX
  8
plains
 10
-0.098026
 20
-0.198938
 30
-0.007707
 70
   192
  0
VERTEX
  8
plains
 10
0.003290
 20
-0.198230
 30
0.014900
 70
   192
  0
VERTEX
  8
plains
 10
0.096050
 20
-0.191392
 30
0.022729
 70
   192
  0
VERTEX
  8
plains
 10
0.188809
 20
-0.184554
 30
0.030558
 70
   192
  0
VERTEX
  8
plains
 10
0.288152
 20
-0.184908
 30
0.027578
 70
   192
  0
VERTEX
  8
plains
 10
0.394076
 20
-0.192454
 30
0.013789
 70
   192
  0
VERTEX
  8
plains
 10
0.500000
 20
-0.200000
 30
-0.000000
 70
   192
  0
VERTEX
  8
plains
 10
-0.500000
 20
-0.100000
 30
0.000000
 70
   192
  0
VERTEX
  8
plains
 10
-0.400000
 20
-0.100000
 30
-0.008323
 70
   192
  0
VERTEX
  8
plains
 10
-0.300000
 20
-0.100000
 30
-0.016646
 70
   192
  0
VERTEX
  8
plains
 10
-0.198026
 20
-0.098938
 30
-0.007707
 70
   192
  0
VERTEX
  8
plains
 10
-0.094079
 20
-0.096814
 30
0.018495
 70
   192
  0
VERTEX
  8
plains
 10
0.009868
 20
-0.094689
 30
0.044698
 70
   192
  0
VERTEX
  8
plains
 10
0.102959
 20
-0.093041
 30
0.033713
 70
   192
  0
VERTEX
  8
plains
 10
0.196050
 20
-0.091392
 30
0.022728
 70
   192
  0
VERTEX
  8
plains
 10
0.294076
 20
-0.092454
 30
0.013789
 70
   192
  0
VERTEX
  8
plains
 10
0.397038
 20
-0.096227
 30
0.006894
 70
   192
  0
VERTEX
  8
plains
 10
0.500000
 20
-0.100000
 30
0.000000
 70
   192
  0
VERTEX
  8
plains
 10
-0.500000
 20
0.000000
 30
0.000000
 70
   192
  0
VERTEX
  8
plains
 10
-0.400000
 20
0.000000
 30
0.000000
 70
   192
  0
VERTEX
  8
plains
 10
-0.300000
 20
0.000000
 30
0.000000
 70
   192
  0
VERTEX
  8
plains
 10
-0.196711
 20
0.001770
 30
0.014899
 70
   192
  0
VERTEX
  8
plains
 10
-0.090132
 20
0.005310
 30
0.044696
 70
   192
  0
VERTEX
  8
plains
 10
0.016446
 20
0.008851
 30
0.074493
 70
   192
  0
VERTEX
  8
plains
 10
0.109868
 20
0.005310
 30
0.044696
 70
   192
  0
VERTEX
  8
plains
 10
0.203289
 20
0.001770
 30
0.014899
 70
   192
  0
VERTEX
  8
plains
 10
0.300000
 20
0.000000
 30
0.000000
 70
   192
  0
VERTEX
  8
plains
 10
0.400000
 20
0.000000
 30
0.000000
 70
   192
  0
VERTEX
  8
plains
 10
0.500000
 20
0.000000
 30
0.000000
 70
   192
  0
VERTEX
  8
plains
 10
-0.500000
 20
0.100000
 30
0.000000
 70
   192
  0
VERTEX
  8
plains
 10
-0.400000
 20
0.100000
 30
0.009252
 70
   192
  0
VERTEX
  8
plains
 10
-0.300000
 20
0.100000
 30
0.018504
 70
   192
  0
VERTEX
  8
plains
 10
-0.199630
 20
0.104695
 30
0.034240
 70
   192
  0
VERTEX
  8
plains
 10
-0.098889
 20
0.114086
 30
0.056460
 70
   192
  0
VERTEX
  8
plains
 10
0.001852
 20
0.123477
 30
0.078680
 70
   192
  0
VERTEX
  8
plains
 10
0.101111
 20
0.114086
 30
0.068670
 70
   192
  0
VERTEX
  8
plains
 10
0.200370
 20
0.104695
 30
0.058660
 70
   192
  0
VERTEX
  8
plains
 10
0.300000
 20
0.100000
 30
0.042924
 70
   192
  0
VERTEX
  8
plains
 10
0.400000
 20
0.100000
 30
0.021462
 70
   192
  0
VERTEX
  8
plains
 10
0.500000
 20
0.100000
 30
0.000000
 70
   192
  0
VERTEX
  8
plains
 10
-0.500000
 20
0.200000
 30
-0.000000
 70
   192
  0
VERTEX
  8
plains
 10
-0.400000
 20
0.200000
 30
0.018503
 70
   192
  0
VERTEX
  8
plains
 10
-0.300000
 20
0.200000
 30
0.037006
 70
   192
  0
VERTEX
  8
plains
 10
-0.202548
 20
0.207620
 30
0.053579
 70
   192
  0
VERTEX
  8
plains
 10
-0.107645
 20
0.222861
 30
0.068224
 70
   192
  0
VERTEX
  8
plains
 10
-0.012741
 20
0.238102
 30
0.082868
 70
   192
  0
VERTEX
  8
plains
 10
0.092355
 20
0.222861
 30
0.092643
 70
   192
  0
VERTEX
  8
plains
 10
0.197452
 20
0.207620
 30
0.102418
 70
   192
  0
VERTEX
  8
plains
 10
0.300000
 20
0.200000
 30
0.085845
 70
   192
  0
VERTEX
  8
plains
 10
0.400000
 20
0.200000
 30
0.042922
 70
   192
  0
VERTEX
  8
plains
 10
0.500000
 20
0.200000
 30
-0.000000
 70
   192
  0
VERTEX
  8
plains
 10
-0.500000
 20
0.300000
 30
0.000000
 70
   192
  0
VERTEX
  8
plains
 10
-0.400000
 20
0.300000
 30
0.018502
 70
   192
  0
VERTEX
  8
plains
 10
-0.300000
 20
0.300000
 30
0.037004
 70
   192
  0
VERTEX
  8
plains
 10
-0.203206
 20
0.307266
 30
0.050598
 70
   192
  0
VERTEX
  8
plains
 10
-0.109618
 20
0.321798
 30
0.059283
 70
   192
  0
VERTEX
  8
plains
 10
-0.016030
 20
0.336331
 30
0.067968
 70
   192
  0
VERTEX
  8
plains
 10
0.090382
 20
0.321798
 30
0.083701
 70
   192
  0
VERTEX
  8
plains
 10
0.196794
 20
0.307266
 30
0.099434
 70
   192
  0
VERTEX
  8
plains
 10
0.300000
 20
0.300000
 30
0.085841
 70
   192
  0
VERTEX
  8
plains
 10
0.400000
 20
0.300000
 30
0.042920
 70
   192
  0
VERTEX
  8
plains
 10
0.500000
 20
0.300000
 30
0.000000
 70
   192
  0
VERTEX
  8
plains
 10
-0.500000
 20
0.400000
 30
-0.000000
 70
   192
  0
VERTEX
  8
plains
 10
-0.400000
 20
0.400000
 30
0.009251
 70
   192
  0
VERTEX
  8
plains
 10
-0.300000
 20
0.400000
 30
0.018501
 70
   192
  0
VERTEX
  8
plains
 10
-0.201603
 20
0.403633
 30
0.025298
 70
   192
  0
VERTEX
  8
plains
 10
-0.104809
 20
0.410899
 30
0.029640
 70
   192
  0
VERTEX
  8
plains
 10
-0.008014
 20
0.418164
 30
0.033982
 70
   192
  0
VERTEX
  8
plains
 10
0.095191
 20
0.410899
 30
0.041849
 70
   192
  0
VERTEX
  8
plains
 10
0.198397
 20
0.403633
 30
0.049715
 70
   192
  0
VERTEX
  8
plains
 10
0.300000
 20
0.400000
 30
0.042918
 70
   192
  0
VERTEX
  8
plains
 10
0.400000
 20
0.400000
 30
0.021459
 70
   192
  0
VERTEX
  8
plains
 10
0.500000
 20
0.400000
 30
-0.000000
 70
   192
  0
VERTEX
  8
plains
 10
-0.500000
 20
0.500000
 30
0.000000
 70
   192
  0
VERTEX
  8
plains
 10
-0.400000
 20
0.500000
 30
0.000000
 70
   192
  0
VERTEX
  8
plains
 10
-0.300000
 20
0.500000
 30
0.000000
 70
   192
  0
VERTEX
  8
plains
 10
-0.200000
 20
0.500000
 30
0.000000
 70
   192
  0
VERTEX
  8
plains
 10
-0.100000
 20
0.500000
 30
0.000000
 70
   192
  0
VERTEX
  8
plains
 10
0.000000
 20
0.500000
 30
0.000000
 70
   192
  0
VERTEX
  8
plains
 10
0.100000
 20
0.500000
 30
0.000000
 70
   192
  0
VERTEX
  8
plains
 10
0.200000
 20
0.500000
 30
0.000000
 70
   192
  0
VERTEX
  8
plains
 10
0.300000
 20
0.500000
 30
0.000000
 70
   192
  0
VERTEX
  8
plains
 10
0.400000
 20
0.500000
 30
0.000000
 70
   192
  0
VERTEX
  8
plains
 10
0.500000
 20
0.500000
 30
0.000000
 70
   192
  0
VERTEX
  8
plains
 62
   254
 10
0.0
 20
0.0
 30
0.0
 70
   128
 71
   1
 72
   12
 73
   13
  0
VERTEX
  8
plains
 62
   254
 10
0.0
 20
0.0
 30
0.0
 70
   128
 71
   2
 72
   1
 73
   13
  0
VERTEX
  8
plains
 62
   254
 10
0.0
 20
0.0
 30
0.0
 70
   128
 71
   2
 72
   13
 73
   14
  0
VERTEX
  8
plains
 62
   254
 10
0.0
 20
0.0
 30
0.0
 70
   128
 71
   3
 72
   2
 73
   14
  0
VERTEX
  8
plains
 62
   254
 10
0.0
 20
0.0
 30
0.0
 70
   128
 71
   3
 72
   14
 73
   15
  0
VERTEX
  8
plains
 62
   254
 10
0.0
 20
0.0
 30
0.0
 70
   128
 71
   4
 72
   3
 73
   15
  0
VERTEX
  8
plains
 62
   254
 10
0.0
 20
0.0
 30
0.0
 70
   128
 71
   4
 72
   15
 73
   16
  0
VERTEX
  8
plains
 62
   254
 10
0.0
 20
0.0
 30
0.0
 70
   128
 71
   5
 72
   4
 73
   16
  0
VERTEX
  8
plains
 62
   254
 10
0.0
 20
0.0
 30
0.0
 70
   128
 71
   5
 72
   16
 73
   17
  0
VERTEX
  8
plains
 62
   254
 10
0.0
 20
0.0
 30
0.0
 70
   128
 71
   6
 72
   5
 73
   17
  0
VERTEX
  8
plains
 62
   254
 10
0.0
 20
0.0
 30
0.0
 70
   128
 71
   18
 72
   7
 73
   17
  0
VERTEX
  8
plains
 62
   254
 10
0.0
 20
0.0
 30
0.0
 70
   128
 71
   6
 72
   17
 73
   7
  0
VERTEX
  8
plains
 62
   254
 10
0.0
 20
0.0
 30
0.0
 70
   128
 71
   7
 72
   18
 73
   19
  0
VERTEX
  8
plains
 62
   254
 10
0.0
 20
0.0
 30
0.0
 70
   128
 71
   8
 72
   7
 73
   19
  0
VERTEX
  8
plains
 62
   254
 10
0.0
 20
0.0
 30
0.0
 70
   128
 71
   8
 72
   19
 73
   20
  0
VERTEX
  8
plains
 62
   254
 10
0.0
 20
0.0
 30
0.0
 70
   128
 71
   9
 72
   8
 73
   20
  0
VERTEX
  8
plains
 62
   254
 10
0.0
 20
0.0
 30
0.0
 70
   128
 71
   9
 72
   20
 73
   21
  0
VERTEX
  8
plains
 62
   254
 10
0.0
 20
0.0
 30
0.0
 70
   128
 71
   10
 72
   9
 73
   21
  0
VERTEX
  8
plains
 62
   254
 10
0.0
 20
0.0
 30
0.0
 70
   128
 71
   10
 72
   21
 73
   22
  0
VERTEX
  8
plains
 62
   254
 10
0.0
 20
0.0
 30
0.0
 70
   128
 71
   11
 72
   10
 73
   22
  0
VERTEX
  8
plains
 62
   254
 10
0.0
 20
0.0
 30
0.0
 70
   128
 71
   12
 72
   23
 73
   24
  0
VERTEX
  8
plains
 62
   254
 10
0.0
 20
0.0
 30
0.0
 70
   128
 71
   13
 72
   12
 73
   24
  0
VERTEX
  8
plains
 62
   254
 10
0.0
 20
0.0
 30
0.0
 70
   128
 71
   13
 72
   24
 73
   25
  0
VERTEX
  8
plains
 62
   254
 10
0.0
 20
0.0
 30
0.0
 70
   128
 71
   14
 72
   13
 73
   25
  0
VERTEX
  8
plains
 62
   254
 10
0.0
 20
0.0
 30
0.0
 70
   128
 71
   14
 72
   25
 73
   26
  0
VERTEX
  8
plains
 62
   254
 10
0.0
 20
0.0
 30
0.0
 70
   128
 71
   15
 72
   14
 73
   26
  0
VERTEX
  8
plains
 62
   254
 10
0.0
 20
0.0
 30
0.0
 70
   128
 71
   15
 72
   26
 73
   27
  0
VERTEX
  8
plains
 62
   254
 10
0.0
 20
0.0
 30
0.0
 70
   128
 71
   16
 72
   15
 73
   27
  0
VERTEX
  8
plains
 62
   254
 10
0.0
 20
0.0
 30
0.0
 70
   128
 71
   16
 72
   27
 73
   28
  0
VERTEX
  8
plains
 62
   254
 10
0.0
 20
0.0
 30
0.0
 70
   128
 71
   17
 72
   16
 73
   28
  0
VERTEX
  8
plains
 62
   254
 10
0.0
 20
0.0
 30
0.0
 70
   128
 71
   29
 72
   18
 73
   28
  0
VERTEX
  8
plains
 62
   254
 10
0.0
 20
0.0
 30
0.0
 70
   128
 71
   17
 72
   28
 73
   18
  0
VERTEX
  8
plains
 62
   254
 10
0.0
 20
0.0
 30
0.0
 70
   128
 71
   30
 72
   19
 73
   29
  0
VERTEX
  8
plains
 62
   254
 10
0.0
 20
0.0
 30
0.0
 70
   128
 71
   18
 72
   29
 73
   19
  0
VERTEX
  8
plains
 62
   254
 10
0.0
 20
0.0
 30
0.0
 70
   128
 71
   19
 72
   30
 73
   31
  0
VERTEX
  8
plains
 62
   254
 10
0.0
 20
0.0
 30
0.0
 70
   128
 71
   20
 72
   19
 73
   31
  0
VERTEX
  8
plains
 62
   254
 10
0.0
 20
0.0
 30
0.0
 70
   128
 71
   20
 72
   31
 73
   32
  0
VERTEX
  8
plains
 62
   254
 10
0.0
 20
0.0
 30
0.0
 70
   128
 71
   21
 72
   20
 73
   32
  0
VERTEX
  8
plains
 62
   254
 10
0.0
 20
0.0
 30
0.0
 70
   128
 71
   21
 72
   32
 73
   33
  0
VERTEX
  8
plains
 62
   254
 10
0.0
 20
0.0
 30
0.0
 70
   128
 71
   22
 72
   21
 73
   33
  0
VERTEX
  8
plains
 62
   254
 10
0.0
 20
0.0
 30
0.0
 70
   128
 71
   23
 72
   34
 73
   35
  0
VERTEX
  8
plains
 62
   254
 10
0.0
 20
0.0
 30
0.0
 70
   128
 71
   24
 72
   23
 73
   35
  0
VERTEX
  8
plains
 62
   254
 10
0.0
 20
0.0
 30
0.0
 70
   128
 71
   24
 72
   35
 73
   36
  0
VERTEX
  8
plains
 62
   254
 10
0.0
 20
0.0
 30
0.0
 70
   128
 71
   25
 72
   24
 73
   36
  0
VERTEX
  8
plains
 62
   254
 10
0.0
 20
0.0
 30
0.0
 70
   128
 71
   37
 72
   26
 73
   36
  0
VERTEX
  8
plains
 62
   254
 10
0.0
 20
0.0
 30
0.0
 70
   128
 71
   25
 72
   36
 73
   26
  0
VERTEX
  8
plains
 62
   254
 10
0.0
 20
0.0
 30
0.0
 70
   128
 71
   38
 72
   27
 73
   37
  0
VERTEX
  8
plains
 62
   254
 10
0.0
 20
0.0
 30
0.0
 70
   128
 71
   26
 72
   37
 73
   27
  0
VERTEX
  8
plains
 62
   254
 10
0.0
 20
0.0
 30
0.0
 70
   128
 71
   39
 72
   28
 73
   38
  0
VERTEX
  8
plains
 62
   254
 10
0.0
 20
0.0
 30
0.0
 70
   128
 71
   27
 72
   38
 73
   28
  0
VERTEX
  8
plains
 62
   254
 10
0.0
 20
0.0
 30
0.0
 70
   128
 71
   40
 72
   29
 73
   39
  0
VERTEX
  8
plains
 62
   254
 10
0.0
 20
0.0
 30
0.0
 70
   128
 71
   28
 72
   39
 73
   29
  0
VERTEX
  8
plains
 62
   254
 10
0.0
 20
0.0
 30
0.0
 70
   128
 71
   41
 72
   30
 73
   40
  0
VERTEX
  8
plains
 62
   254
 10
0.0
 20
0.0
 30
0.0
 70
   128
 71
   29
 72
   40
 73
   30
  0
VERTEX
  8
plains
 62
   254
 10
0.0
 20
0.0
 30
0.0
 70
   128
 71
   42
 72
   31
 73
   41
  0
VERTEX
  8
plains
 62
   254
 10
0.0
 20
0.0
 30
0.0
 70
   128
 71
   30
 72
   41
 73
   31
  0
VERTEX
  8
plains
 62
   254
 10
0.0
 20
0.0
 30
0.0
 70
   128
 71
   31
 72
   42
 73
   43
  0
VERTEX
  8
plains
 62
   254
 10
0.0
 20
0.0
 30
0.0
 70
   128
 71
   32
 72
   31
 73
   43
  0
VERTEX
  8
plains
 62
   254
 10
0.0
 20
0.0
 30
0.0
 70
   128
 71
   32
 72
   43
 73
   44
  0
VERTEX
  8
plains
 62
   254
 10
0.0
 20
0.0
 30
0.0
 70
   128
 71
   33
 72
   32
 73
   44
  0
VERTEX
  8
plains
 62
   254
 10
0.0
 20
0.0
 30
0.0
 70
   128
 71
   34
 72
   45
 73
   46
  0
VERTEX
  8
plains
 62
   254
 10
0.0
 20
0.0
 30
0.0
 70
   128
 71
   35
 72
   34
 73
   46
  0
VERTEX
  8
plains
 62
   254
 10
0.0
 20
0.0
 30
0.0
 70
   128
 71
   35
 72
   46
 73
   47
  0
VERTEX
  8
plains
 62
   254
 10
0.0
 20
0.0
 30
0.0
 70
   128
 71
   36
 72
   35
 73
   47
  0
VERTEX
  8
plains
 62
   254
 10
0.0
 20
0.0
 30
0.0
 70
   128
 71
   48
 72
   37
 73
   47
  0
VERTEX
  8
plains
 62
   254
 10
0.0
 20
0.0
 30
0.0
 70
   128
 71
   36
 72
   47
 73
   37
  0
VERTEX
  8
plains
 62
   254
 10
0.0
 20
0.0
 30
0.0
 70
   128
 71
   49
 72
   38
 73
   48
  0
VERTEX
  8
plains
 62
   254
 10
0.0
 20
0.0
 30
0.0
 70
   128
 71
   37
 72
   48
 73
   38
  0
VERTEX
  8
plains
 62
   254
 10
0.0
 20
0.0
 30
0.0
 70
   128
 71
   50
 72
   39
 73
   49
  0
VERTEX
  8
plains
 62
   254
 10
0.0
 20
0.0
 30
0.0
 70
   128
 71
   38
 72
   49
 73
   39
  0
VERTEX
  8
plains
 62
   254
 10
0.0
 20
0.0
 30
0.0
 70
   128
 71
   51
 72
   40
 73
   50
  0
VERTEX
  8
plains
 62
   254
 10
0.0
 20
0.0
 30
0.0
 70
   128
 71
   39
 72
   50
 73
   40
  0
VERTEX
  8
plains
 62
   254
 10
0.0
 20
0.0
 30
0.0
 70
   128
 71
   52
 72
   41
 73
   51
  0
VERTEX
  8
plains
 62
   254
 10
0.0
 20
0.0
 30
0.0
 70
   128
 71
   40
 72
   51
 73
   41
  0
VERTEX
  8
plains
 62
   254
 10
0.0
 20
0.0
 30
0.0
 70
   128
 71
   53
 72
   42
 73
   52
  0
VERTEX
  8
plains
 62
   254
 10
0.0
 20
0.0
 30
0.0
 70
   128
 71
   41
 72
   52
 73
   42
  0
VERTEX
  8
plains
 62
   254
 10
0.0
 20
0.0
 30
0.0
 70
   128
 71
   42
 72
   53
 73
   54
  0
VERTEX
  8
plains
 62
   254
 10
0.0
 20
0.0
 30
0.0
 70
   128
 71
   43
 72
   42
 73
   54
  0
VERTEX
  8
plains
 62
   254
 10
0.0
 20
0.0
 30
0.0
 70
   128
 71
   43
 72
   54
 73
   55
  0
VERTEX
  8
plains
 62
   254
 10
0.0
 20
0.0
 30
0.0
 70
   128
 71
   44
 72
   43
 73
   55
  0
VERTEX
  8
plains
 62
   254
 10
0.0
 20
0.0
 30
0.0
 70
   128
 71
   45
 72
   56
 73
   57
  0
VERTEX
  8
plains
 62
   254
 10
0.0
 20
0.0
 30
0.0
 70
   128
 71
   46
 72
   45
 73
   57
  0
VERTEX
  8
plains
 62
   254
 10
0.0
 20
0.0
 30
0.0
 70
   128
 71
   46
 72
   57
 73
   58
  0
VERTEX
  8
plains
 62
   254
 10
0.0
 20
0.0
 30
0.0
 70
   128
 71
   47
 72
   46
 73
   58
  0
VERTEX
  8
plains
 62
   254
 10
0.0
 20
0.0
 30
0.0
 70
   128
 71
   59
 72
   48
 73
   58
  0
VERTEX
  8
plains
 62
   254
 10
0.0
 20
0.0
 30
0.0
 70
   128
 71
   47
 72
   58
 73
   48
  0
VERTEX
  8
plains
 62
   254
 10
0.0
 20
0.0
 30
0.0
 70
   128
 71
   60
 72
   49
 73
   59
  0
VERTEX
  8
plains
 62
   254
 10
0.0
 20
0.0
 30
0.0
 70
   128
 71
   48
 72
   59
 73
   49
  0
VERTEX
  8
plains
 62
   254
 10
0.0
 20
0.0
 30
0.0
 70
   128
 71
   61
 72
   50
 73
   60
  0
VERTEX
  8
plains
 62
   254
 10
0.0
 20
0.0
 30
0.0
 70
   128
 71
   49
 72
   60
 73
   50
  0
VERTEX
  8
plains
 62
   254
 10
0.0
 20
0.0
 30
0.0
 70
   128
 71
   62
 72
   51
 73
   61
  0
VERTEX
  8
plains
 62
   254
 10
0.0
 20
0.0
 30
0.0
 70
   128
 71
   50
 72
   61
 73
   51
  0
VERTEX
  8
plains
 62
   254
 10
0.0
 20
0.0
 30
0.0
 70
   128
 71
   63
 72
   52
 73
   62
  0
VERTEX
  8
plains
 62
   254
 10
0.0
 20
0.0
 30
0.0
 70
   128
 71
   51
 72
   62
 73
   52
  0
VERTEX
  8
plains
 62
   254
 10
0.0
 20
0.0
 30
0.0
 70
   128
 71
   64
 72
   53
 73
   63
  0
VERTEX
  8
plains
 62
   254
 10
0.0
 20
0.0
 30
0.0
 70
   128
 71
   52
 72
   63
 73
   53
  0
VERTEX
  8
plains
 62
   254
 10
0.0
 20
0.0
 30
0.0
 70
   128
 71
   65
 72
   54
 73
   64
  0
VERTEX
  8
plains
 62
   254
 10
0.0
 20
0.0
 30
0.0
 70
   128
 71
   53
 72
   64
 73
   54
  0
VERTEX
  8
plains
 62
   254
 10
0.0
 20
0.0
 30
0.0
 70
   128
 71
   54
 72
   65
 73
   66
  0
VERTEX
  8
plains
 62
   254
 10
0.0
 20
0.0
 30
0.0
 70
   128
 71
   55
 72
   54
 73
   66
  0
VERTEX
  8
plains
 62
   254
 10
0.0
 20
0.0
 30
0.0
 70
   128
 71
   56
 72
   67
 73
   68
  0
VERTEX
  8
plains
 62
   254
 10
0.0
 20
0.0
 30
0.0
 70
   128
 71
   57
 72
   56
 73
   68
  0
VERTEX
  8
plains
 62
   254
 10
0.0
 20
0.0
 30
0.0
 70
   128
 71
   57
 72
   68
 73
   69
  0
VERTEX
  8
plains
 62
   254
 10
0.0
 20
0.0
 30
0.0
 70
   128
 71
   58
 72
   57
 73
   69
  0
VERTEX
  8
plains
 62
   254
 10
0.0
 20
0.0
 30
0.0
 70
   128
 71
   70
 72
   59
 73
   69
  0
VERTEX
  8
plains
 62
   254
 10
0.0
 20
0.0
 30
0.0
 70
   128
 71
   58
 72
   69
 73
   59
  0
VERTEX
  8
plains
 62
   254
 10
0.0
 20
0.0
 30
0.0
 70
   128
 71
   71
 72
   60
 73
   70
  0
VERTEX
  8
plains
 62
   254
 10
0.0
 20
0.0
 30
0.0
 70
   128
 71
   59
 72
   70
 73
   60
  0
VERTEX
  8
plains
 62
   254
 10
0.0
 20
0.0
 30
0.0
 70
   128
 71
   60
 72
   71
 73
   72
  0
VERTEX
  8
plains
 62
   254
 10
0.0
 20
0.0
 30
0.0
 70
   128
 71
   61
 72
   60
 73
   72
  0
VERTEX
  8
plains
 62
   254
 10
0.0
 20
0.0
 30
0.0
 70
   128
 71
   61
 72
   72
 73
   73
  0
VERTEX
  8
plains
 62
   254
 10
0.0
 20
0.0
 30
0.0
 70
   128
 71
   62
 72
   61
 73
   73
  0
VERTEX
  8
plains
 62
   254
 10
0.0
 20
0.0
 30
0.0
 70
   128
 71
   62
 72
   73
 73
   74
  0
VERTEX
  8
plains
 62
   254
 10
0.0
 20
0.0
 30
0.0
 70
   128
 71
   63
 72
   62
 73
   74
  0
VERTEX
  8
plains
 62
   254
 10
0.0
 20
0.0
 30
0.0
 70
   128
 71
   63
 72
   74
 73
   75
  0
VERTEX
  8
plains
 62
   254
 10
0.0
 20
0.0
 30
0.0
 70
   128
 71
   64
 72
   63
 73
   75
  0
VERTEX
  8
plains
 62
   254
 10
0.0
 20
0.0
 30
0.0
 70
   128
 71
   64
 72
   75
 73
   76
  0
VERTEX
  8
plains
 62
   254
 10
0.0
 20
0.0
 30
0.0
 70
   128
 71
   65
 72
   64
 73
   76
  0
VERTEX
  8
plains
 62
   254
 10
0.0
 20
0.0
 30
0.0
 70
   128
 71
   65
 72
   76
 73
   77
  0
VERTEX
  8
plains
 62
   254
 10
0.0
 20
0.0
 30
0.0
 70
   128
 71
   66
 72
   65
 73
   77
  0
VERTEX
  8
plains
 62
   254
 10
0.0
 20
0.0
 30
0.0
 70
   128
 71
   67
 72
   78
 73
   79
  0
VERTEX
  8
plains
 62
   254
 10
0.0
 20
0.0
 30
0.0
 70
   128
 71
   68
 72
   67
 73
   79
  0
VERTEX
  8
plains
 62
   254
 10
0.0
 20
0.0
 30
0.0
 70
   128
 71
   68
 72
   79
 73
   80
  0
VERTEX
  8
plains
 62
   254
 10
0.0
 20
0.0
 30
0.0
 70
   128
 71
   69
 72
   68
 73
   80
  0
VERTEX
  8
plains
 62
   254
 10
0.0
 20
0.0
 30
0.0
 70
   128
 71
   81
 72
   70
 73
   80
  0
VERTEX
  8
plains
 62
   254
 10
0.0
 20
0.0
 30
0.0
 70
   128
 71
   69
 72
   80
 73
   70
  0
VERTEX
  8
plains
 62
   254
 10
0.0
 20
0.0
 30
0.0
 70
   128
 71
   82
 72
   71
 73
   81
  0
VERTEX
  8
plains
 62
   254
 10
0.0
 20
0.0
 30
0.0
 70
   128
 71
   70
 72
   81
 73
   71
  0
VERTEX
  8
plains
 62
   254
 10
0.0
 20
0.0
 30
0.0
 70
   128
 71
   83
 72
   72
 73
   82
  0
VERTEX
  8
plains
 62
   254
 10
0.0
 20
0.0
 30
0.0
 70
   128
 71
   71
 72
   82
 73
   72
  0
VERTEX
  8
plains
 62
   254
 10
0.0
 20
0.0
 30
0.0
 70
   128
 71
   72
 72
   83
 73
   84
  0
VERTEX
  8
plains
 62
   254
 10
0.0
 20
0.0
 30
0.0
 70
   128
 71
   73
 72
   72
 73
   84
  0
VERTEX
  8
plains
 62
   254
 10
0.0
 20
0.0
 30
0.0
 70
   128
 71
   73
 72
   84
 73
   85
  0
VERTEX
  8
plains
 62
   254
 10
0.0
 20
0.0
 30
0.0
 70
   128
 71
   74
 72
   73
 73
   85
  0
VERTEX
  8
plains
 62
   254
 10
0.0
 20
0.0
 30
0.0
 70
   128
 71
   74
 72
   85
 73
   86
  0
VERTEX
  8
plains
 62
   254
 10
0.0
 20
0.0
 30
0.0
 70
   128
 71
   75
 72
   74
 73
   86
  0
VERTEX
  8
plains
 62
   254
 10
0.0
 20
0.0
 30
0.0
 70
   128
 71
   75
 72
   86
 73
   87
  0
VERTEX
  8
plains
 62
   254
 10
0.0
 20
0.0
 30
0.0
 70
   128
 71
   76
 72
   75
 73
   87
  0
VERTEX
  8
plains
 62
   254
 10
0.0
 20
0.0
 30
0.0
 70
   128
 71
   76
 72
   87
 73
   88
  0
VERTEX
  8
plains
 62
   254
 10
0.0
 20
0.0
 30
0.0
 70
   128
 71
   77
 72
   76
 73
   88
  0
VERTEX
  8
plains
 62
   254
 10
0.0
 20
0.0
 30
0.0
 70
   128
 71
   78
 72
   89
 73
   90
  0
VERTEX
  8
plains
 62
   254
 10
0.0
 20
0.0
 30
0.0
 70
   128
 71
   79
 72
   78
 73
   90
  0
VERTEX
  8
plains
 62
   254
 10
0.0
 20
0.0
 30
0.0
 70
   128
 71
   79
 72
   90
 73
   91
  0
VERTEX
  8
plains
 62
   254
 10
0.0
 20
0.0
 30
0.0
 70
   128
 71
   80
 72
   79
 73
   91
  0
VERTEX
  8
plains
 62
   254
 10
0.0
 20
0.0
 30
0.0
 70
   128
 71
   92
 72
   81
 73
   91
  0
VERTEX
  8
plains
 62
   254
 10
0.0
 20
0.0
 30
0.0
 70
   128
 71
   80
 72
   91
 73
   81
  0
VERTEX
  8
plains
 62
   254
 10
0.0
 20
0.0
 30
0.0
 70
   128
 71
   93
 72
   82
 73
   92
  0
VERTEX
  8
plains
 62
   254
 10
0.0
 20
0.0
 30
0.0
 70
   128
 71
   81
 72
   92
 73
   82
  0
VERTEX
  8
plains
 62
   254
 10
0.0
 20
0.0
 30
0.0
 70
   128
 71
   94
 72
   83
 73
   93
  0
VERTEX
  8
plains
 62
   254
 10
0.0
 20
0.0
 30
0.0
 70
   128
 71
   82
 72
   93
 73
   83
  0
VERTEX
  8
plains
 62
   254
 10
0.0
 20
0.0
 30
0.0
 70
   128
 71
   83
 72
   94
 73
   95
  0
VERTEX
  8
plains
 62
   254
 10
0.0
 20
0.0
 30
0.0
 70
   128
 71
   84
 72
   83
 73
   95
  0
VERTEX
  8
plains
 62
   254
 10
0.0
 20
0.0
 30
0.0
 70
   128
 71
   84
 72
   95
 73
   96
  0
VERTEX
  8
plains
 62
   254
 10
0.0
 20
0.0
 30
0.0
 70
   128
 71
   85
 72
   84
 73
   96
  0
VERTEX
  8
plains
 62
   254
 10
0.0
 20
0.0
 30
0.0
 70
   128
 71
   85
 72
   96
 73
   97
  0
VERTEX
  8
plains
 62
   254
 10
0.0
 20
0.0
 30
0.0
 70
   128
 71
   86
 72
   85
 73
   97
  0
VERTEX
  8
plains
 62
   254
 10
0.0
 20
0.0
 30
0.0
 70
   128
 71
   86
 72
   97
 73
   98
  0
VERTEX
  8
plains
 62
   254
 10
0.0
 20
0.0
 30
0.0
 70
   128
 71
   87
 72
   86
 73
   98
  0
VERTEX
  8
plains
 62
   254
 10
0.0
 20
0.0
 30
0.0
 70
   128
 71
   87
 72
   98
 73
   99
  0
VERTEX
  8
plains
 62
   254
 10
0.0
 20
0.0
 30
0.0
 70
   128
 71
   88
 72
   87
 73
   99
  0
VERTEX
  8
plains
 62
   254
 10
0.0
 20
0.0
 30
0.0
 70
   128
 71
   89
 72
   100
 73
   101
  0
VERTEX
  8
plains
 62
   254
 10
0.0
 20
0.0
 30
0.0
 70
   128
 71
   90
 72
   89
 73
   101
  0
VERTEX
  8
plains
 62
   254
 10
0.0
 20
0.0
 30
0.0
 70
   128
 71
   90
 72
   101
 73
   102
  0
VERTEX
  8
plains
 62
   254
 10
0.0
 20
0.0
 30
0.0
 70
   128
 71
   91
 72
   90
 73
   102
  0
VERTEX
  8
plains
 62
   254
 10
0.0
 20
0.0
 30
0.0
 70
   128
 71
   103
 72
   92
 73
   102
  0
VERTEX
  8
plains
 62
   254
 10
0.0
 20
0.0
 30
0.0
 70
   128
 71
   91
 72
   102
 73
   92
  0
VERTEX
  8
plains
 62
   254
 10
0.0
 20
0.0
 30
0.0
 70
   128
 71
   104
 72
   93
 73
   103
  0
VERTEX
  8
plains
 62
   254
 10
0.0
 20
0.0
 30
0.0
 70
   128
 71
   92
 72
   103
 73
   93
  0
VERTEX
  8
plains
 62
   254
 10
0.0
 20
0.0
 30
0.0
 70
   128
 71
   105
 72
   94
 73
   104
  0
VERTEX
  8
plains
 62
   254
 10
0.0
 20
0.0
 30
0.0
 70
   128
 71
   93
 72
   104
 73
   94
  0
VERTEX
  8
plains
 62
   254
 10
0.0
 20
0.0
 30
0.0
 70
   128
 71
   94
 72
   105
 73
   106
  0
VERTEX
  8
plains
 62
   254
 10
0.0
 20
0.0
 30
0.0
 70
   128
 71
   95
 72
   94
 73
   106
  0
VERTEX
  8
plains
 62
   254
 10
0.0
 20
0.0
 30
0.0
 70
   128
 71
   95
 72
   106
 73
   107
  0
VERTEX
  8
plains
 62
   254
 10
0.0
 20
0.0
 30
0.0
 70
   128
 71
   96
 72
   95
 73
   107
  0
VERTEX
  8
plains
 62
   254
 10
0.0
 20
0.0
 30
0.0
 70
   128
 71
   96
 72
   107
 73
   108
  0
VERTEX
  8
plains
 62
   254
 10
0.0
 20
0.0
 30
0.0
 70
   128
 71
   97
 72
   96
 73
   108
  0
VERTEX
  8
plains
 62
   254
 10
0.0
 20
0.0
 30
0.0
 70
   128
 71
   97
 72
   108
 73
   109
  0
VERTEX
  8
plains
 62
   254
 10
0.0
 20
0.0
 30
0.0
 70
   128
 71
   98
 72
   97
 73
   109
  0
VERTEX
  8
plains
 62
   254
 10
0.0
 20
0.0
 30
0.0
 70
   128
 71
   98
 72
   109
 73
   110
  0
VERTEX
  8
plains
 62
   254
 10
0.0
 20
0.0
 30
0.0
 70
   128
 71
   99
 72
   98
 73
   110
  0
VERTEX
  8
plains
 62
   254
 10
0.0
 20
0.0
 30
0.0
 70
   128
 71
   100
 72
   111
 73
   112
  0
VERTEX
  8
plains
 62
   254
 10
0.0
 20
0.0
 30
0.0
 70
   128
 71
   101
 72
   100
 73
   112
  0
VERTEX
  8
plains
 62
   254
 10
0.0
 20
0.0
 30
0.0
 70
   128
 71
   101
 72
   112
 73
   113
  0
VERTEX
  8
plains
 62
   254
 10
0.0
 20
0.0
 30
0.0
 70
   128
 71
   102
 72
   101
 73
   113
  0
VERTEX
  8
plains
 62
   254
 10
0.0
 20
0.0
 30
0.0
 70
   128
 71
   114
 72
   103
 73
   113
  0
VERTEX
  8
plains
 62
   254
 10
0.0
 20
0.0
 30
0.0
 70
   128
 71
   102
 72
   113
 73
   103
  0
VERTEX
  8
plains
 62
   254
 10
0.0
 20
0.0
 30
0.0
 70
   128
 71
   115
 72
   104
 73
   114
  0
VERTEX
  8
plains
 62
   254
 10
0.0
 20
0.0
 30
0.0
 70
   128
 71
   103
 72
   114
 73
   104
  0
VERTEX
  8
plains
 62
   254
 10
0.0
 20
0.0
 30
0.0
 70
   128
 71
   116
 72
   105
 73
   115
  0
VERTEX
  8
plains
 62
   254
 10
0.0
 20
0.0
 30
0.0
 70
   128
 71
   104
 72
   115
 73
   105
  0
VERTEX
  8
plains
 62
   254
 10
0.0
 20
0.0
 30
0.0
 70
   128
 71
   117
 72
   106
 73
   116
  0
VERTEX
  8
plains
 62
   254
 10
0.0
 20
0.0
 30
0.0
 70
   128
 71
   105
 72
   116
 73
   106
  0
VERTEX
  8
plains
 62
   254
 10
0.0
 20
0.0
 30
0.0
 70
   128
 71
   118
 72
   107
 73
   117
  0
VERTEX
  8
plains
 62
   254
 10
0.0
 20
0.0
 30
0.0
 70
   128
 71
   106
 72
   117
 73
   107
  0
VERTEX
  8
plains
 62
   254
 10
0.0
 20
0.0
 30
0.0
 70
   128
 71
   107
 72
   118
 73
   119
  0
VERTEX
  8
plains
 62
   254
 10
0.0
 20
0.0
 30
0.0
 70
   128
 71
   108
 72
   107
 73
   119
  0
VERTEX
  8
plains
 62
   254
 10
0.0
 20
0.0
 30
0.0
 70
   128
 71
   108
 72
   119
 73
   120
  0
VERTEX
  8
plains
 62
   254
 10
0.0
 20
0.0
 30
0.0
 70
   128
 71
   109
 72
   108
 73
   120
  0
VERTEX
  8
plains
 62
   254
 10
0.0
 20
0.0
 30
0.0
 70
   128
 71
   109
 72
   120
 73
   121
  0
VERTEX
  8
plains
 62
   254
 10
0.0
 20
0.0
 30
0.0
 70
   128
 71
   110
 72
   109
 73
   121
  0
SEQEND
  0
ENDSEC
  0
EOF
